G04*
G04 #@! TF.GenerationSoftware,Altium Limited,Altium Designer,20.0.2 (26)*
G04*
G04 Layer_Color=16711935*
%FSLAX24Y24*%
%MOIN*%
G70*
G01*
G75*
%ADD12C,0.0100*%
D12*
X25200Y19900D02*
G03*
X24600Y20500I-600J0D01*
G01*
X-2100Y-400D02*
G03*
X-1500Y-1100I650J-50D01*
G01*
X-1600Y20500D02*
G03*
X-2100Y20000I0J-500D01*
G01*
X24500Y-1100D02*
G03*
X25200Y-400I0J700D01*
G01*
X-1600Y20500D02*
X3500D01*
X20500D02*
X24600D01*
X11500Y18000D02*
X12000Y17500D01*
X6000Y18000D02*
X11500D01*
X12000Y15500D02*
Y17500D01*
X3500Y20500D02*
X6000Y18000D01*
X12000Y15500D02*
X12500Y15000D01*
X17500D01*
X18000Y15500D01*
Y18000D01*
X20500Y20500D01*
X3700Y-1100D02*
X4600Y-2000D01*
X18000Y-1100D02*
X24500D01*
X17100Y-2000D02*
X18000Y-1100D01*
X-1500Y-1100D02*
X3700D01*
X25200Y19900D02*
X25200Y-400D01*
X-2100D02*
X-2100Y20000D01*
X4600Y-2000D02*
X17100D01*
X25200Y19900D02*
G03*
X24600Y20500I-600J0D01*
G01*
X-2100Y-400D02*
G03*
X-1500Y-1100I650J-50D01*
G01*
X-1600Y20500D02*
G03*
X-2100Y20000I0J-500D01*
G01*
X24500Y-1100D02*
G03*
X25200Y-400I0J700D01*
G01*
X-1600Y20500D02*
X3500D01*
X20500D02*
X24600D01*
X11500Y18000D02*
X12000Y17500D01*
X6000Y18000D02*
X11500D01*
X12000Y15500D02*
Y17500D01*
X3500Y20500D02*
X6000Y18000D01*
X12000Y15500D02*
X12500Y15000D01*
X17500D01*
X18000Y15500D01*
Y18000D01*
X20500Y20500D01*
X3700Y-1100D02*
X4600Y-2000D01*
X18000Y-1100D02*
X24500D01*
X17100Y-2000D02*
X18000Y-1100D01*
X-1500Y-1100D02*
X3700D01*
X25200Y19900D02*
X25200Y-400D01*
X-2100D02*
X-2100Y20000D01*
X4600Y-2000D02*
X17100D01*
M02*
