M48
;Layer_Color=9474304
;FILE_FORMAT=2:4
INCH,LZ
;TYPE=PLATED
T1F00S00C0.0080
T2F00S00C0.0354
T3F00S00C0.0400
T4F00S00C0.1260
;TYPE=NON_PLATED
T6F00S00C0.1260
%
T01
X00505Y00995
X008Y0075
X01Y0055
X0175Y0105
X0135Y012
T02
X0215Y0061
Y0071
Y0081
X0198Y0061
X0188
X0178
X0168
X0158
X0148
X0138
X0128
X0127Y0038
Y0028
Y0018
Y0008
X0137
Y0018
Y0028
Y0038
X0122Y-0012
X0112
X0102
X0079
X0069
X0059
X0015Y0035
Y0045
Y0055
Y0065
X0014Y0115
Y0125
Y0135
X011
Y0145
Y0155
Y0165
Y0125
Y0115
X015Y013
X016
X017
X019Y015
X02
Y016
X019
X021
Y015
Y0136
Y0126
T03
X023Y0
X024
Y001
Y002
Y003
Y004
Y005
Y006
Y007
Y008
Y009
Y01
Y011
X023
Y01
Y009
Y008
Y007
Y006
Y005
Y004
Y003
Y002
Y001
X0
Y002
Y003
Y004
Y005
Y006
Y007
Y008
Y009
Y01
Y011
X-001
Y01
Y009
Y008
Y007
Y006
Y005
Y004
Y003
Y002
Y001
Y0
X0
Y012
Y013
Y014
Y015
Y016
Y017
Y018
X-001
Y017
Y016
Y015
Y014
Y013
Y012
X0015Y018
X0035
X023
X024
Y017
Y016
Y015
Y014
Y013
Y012
X023
Y013
Y014
Y015
Y016
Y017
T04
X015Y-001
T06
X002Y0195
X021Y019
M30
