G04*
G04 #@! TF.GenerationSoftware,Altium Limited,Altium Designer,20.0.2 (26)*
G04*
G04 Layer_Color=128*
%FSLAX24Y24*%
%MOIN*%
G70*
G01*
G75*
%ADD12C,0.0100*%
%ADD39C,0.0020*%
G36*
X12000Y21000D02*
D01*
D02*
G37*
D12*
X25200Y19900D02*
G03*
X24600Y20500I-600J0D01*
G01*
X-2100Y-400D02*
G03*
X-1500Y-1100I650J-50D01*
G01*
X-1600Y20500D02*
G03*
X-2100Y20000I0J-500D01*
G01*
X24500Y-1100D02*
G03*
X25200Y-400I0J700D01*
G01*
X-1600Y20500D02*
X3500D01*
X20500D02*
X24600D01*
X11500Y18000D02*
X12000Y17500D01*
X6000Y18000D02*
X11500D01*
X12000Y15500D02*
Y17500D01*
X3500Y20500D02*
X6000Y18000D01*
X12000Y15500D02*
X12500Y15000D01*
X17500D01*
X18000Y15500D01*
Y18000D01*
X20500Y20500D01*
X3700Y-1100D02*
X4600Y-2000D01*
X18000Y-1100D02*
X24500D01*
X17100Y-2000D02*
X18000Y-1100D01*
X-1500Y-1100D02*
X3700D01*
X25200Y19900D02*
X25200Y-400D01*
X-2100D02*
X-2100Y20000D01*
X4600Y-2000D02*
X17100D01*
D39*
X5400Y16750D02*
X6600D01*
X6000Y16150D02*
Y17350D01*
X20823Y12600D02*
X21177D01*
X21000Y12423D02*
Y12777D01*
X20823Y13600D02*
X21177D01*
X21000Y13423D02*
Y13777D01*
X14823Y13000D02*
X15177D01*
X15000Y12823D02*
Y13177D01*
X15823Y13000D02*
X16177D01*
X16000Y12823D02*
Y13177D01*
X16823Y13000D02*
X17177D01*
X17000Y12823D02*
Y13177D01*
X23800Y18000D02*
X24200D01*
X24000Y17800D02*
Y18200D01*
X23800Y6000D02*
X24200D01*
X24000Y5800D02*
Y6200D01*
X23800Y7000D02*
X24200D01*
X24000Y6800D02*
Y7200D01*
X23800Y8000D02*
X24200D01*
X24000Y7800D02*
Y8200D01*
X23800Y10000D02*
X24200D01*
X24000Y9800D02*
Y10200D01*
X23800Y11000D02*
X24200D01*
X24000Y10800D02*
Y11200D01*
X23800Y12000D02*
X24200D01*
X24000Y11800D02*
Y12200D01*
X23800Y13000D02*
X24200D01*
X24000Y12800D02*
Y13200D01*
X23800Y14000D02*
X24200D01*
X24000Y13800D02*
Y14200D01*
X23800Y15000D02*
X24200D01*
X24000Y14800D02*
Y15200D01*
X23800Y2000D02*
X24200D01*
X24000Y1800D02*
Y2200D01*
X23800Y0D02*
X24200D01*
X24000Y-200D02*
Y200D01*
X23800Y1000D02*
X24200D01*
X24000Y800D02*
Y1200D01*
X23800Y16000D02*
X24200D01*
X24000Y15800D02*
Y16200D01*
X23800Y17000D02*
X24200D01*
X24000Y16800D02*
Y17200D01*
X23800Y5000D02*
X24200D01*
X24000Y4800D02*
Y5200D01*
X23800Y3000D02*
X24200D01*
X24000Y2800D02*
Y3200D01*
X23800Y4000D02*
X24200D01*
X24000Y3800D02*
Y4200D01*
X23800Y9000D02*
X24200D01*
X24000Y8800D02*
Y9200D01*
X22800Y9000D02*
X23200D01*
X23000Y8800D02*
Y9200D01*
X22800Y4000D02*
X23200D01*
X23000Y3800D02*
Y4200D01*
X22800Y3000D02*
X23200D01*
X23000Y2800D02*
Y3200D01*
X22800Y5000D02*
X23200D01*
X23000Y4800D02*
Y5200D01*
X22800Y18000D02*
X23200D01*
X23000Y17800D02*
Y18200D01*
X22800Y17000D02*
X23200D01*
X23000Y16800D02*
Y17200D01*
X22800Y16000D02*
X23200D01*
X23000Y15800D02*
Y16200D01*
X22800Y1000D02*
X23200D01*
X23000Y800D02*
Y1200D01*
X22800Y0D02*
X23200D01*
X23000Y-200D02*
Y200D01*
X22800Y2000D02*
X23200D01*
X23000Y1800D02*
Y2200D01*
X22800Y15000D02*
X23200D01*
X23000Y14800D02*
Y15200D01*
X22800Y14000D02*
X23200D01*
X23000Y13800D02*
Y14200D01*
X22800Y13000D02*
X23200D01*
X23000Y12800D02*
Y13200D01*
X22800Y12000D02*
X23200D01*
X23000Y11800D02*
Y12200D01*
X22800Y11000D02*
X23200D01*
X23000Y10800D02*
Y11200D01*
X22800Y10000D02*
X23200D01*
X23000Y9800D02*
Y10200D01*
X22800Y8000D02*
X23200D01*
X23000Y7800D02*
Y8200D01*
X22800Y7000D02*
X23200D01*
X23000Y6800D02*
Y7200D01*
X22800Y6000D02*
X23200D01*
X23000Y5800D02*
Y6200D01*
X1300Y18000D02*
X1700D01*
X1500Y17800D02*
Y18200D01*
X3300Y18000D02*
X3700D01*
X3500Y17800D02*
Y18200D01*
X-200Y18000D02*
X200D01*
X0Y17800D02*
Y18200D01*
X-200Y6000D02*
X200D01*
X0Y5800D02*
Y6200D01*
X-200Y7000D02*
X200D01*
X0Y6800D02*
Y7200D01*
X-200Y8000D02*
X200D01*
X0Y7800D02*
Y8200D01*
X-200Y10000D02*
X200D01*
X0Y9800D02*
Y10200D01*
X-200Y11000D02*
X200D01*
X0Y10800D02*
Y11200D01*
X-200Y12000D02*
X200D01*
X0Y11800D02*
Y12200D01*
X-200Y13000D02*
X200D01*
X0Y12800D02*
Y13200D01*
X-200Y14000D02*
X200D01*
X0Y13800D02*
Y14200D01*
X-200Y15000D02*
X200D01*
X0Y14800D02*
Y15200D01*
X-200Y2000D02*
X200D01*
X0Y1800D02*
Y2200D01*
X-200Y0D02*
X200D01*
X0Y-200D02*
Y200D01*
X-200Y1000D02*
X200D01*
X0Y800D02*
Y1200D01*
X-200Y16000D02*
X200D01*
X0Y15800D02*
Y16200D01*
X-200Y17000D02*
X200D01*
X0Y16800D02*
Y17200D01*
X-200Y5000D02*
X200D01*
X0Y4800D02*
Y5200D01*
X-200Y3000D02*
X200D01*
X0Y2800D02*
Y3200D01*
X-200Y4000D02*
X200D01*
X0Y3800D02*
Y4200D01*
X-200Y9000D02*
X200D01*
X0Y8800D02*
Y9200D01*
X-1200Y9000D02*
X-800D01*
X-1000Y8800D02*
Y9200D01*
X-1200Y4000D02*
X-800D01*
X-1000Y3800D02*
Y4200D01*
X-1200Y3000D02*
X-800D01*
X-1000Y2800D02*
Y3200D01*
X-1200Y5000D02*
X-800D01*
X-1000Y4800D02*
Y5200D01*
X-1200Y18000D02*
X-800D01*
X-1000Y17800D02*
Y18200D01*
X-1200Y17000D02*
X-800D01*
X-1000Y16800D02*
Y17200D01*
X-1200Y16000D02*
X-800D01*
X-1000Y15800D02*
Y16200D01*
X-1200Y1000D02*
X-800D01*
X-1000Y800D02*
Y1200D01*
X-1200Y0D02*
X-800D01*
X-1000Y-200D02*
Y200D01*
X-1200Y2000D02*
X-800D01*
X-1000Y1800D02*
Y2200D01*
X-1200Y15000D02*
X-800D01*
X-1000Y14800D02*
Y15200D01*
X-1200Y14000D02*
X-800D01*
X-1000Y13800D02*
Y14200D01*
X-1200Y13000D02*
X-800D01*
X-1000Y12800D02*
Y13200D01*
X-1200Y12000D02*
X-800D01*
X-1000Y11800D02*
Y12200D01*
X-1200Y11000D02*
X-800D01*
X-1000Y10800D02*
Y11200D01*
X-1200Y10000D02*
X-800D01*
X-1000Y9800D02*
Y10200D01*
X-1200Y8000D02*
X-800D01*
X-1000Y7800D02*
Y8200D01*
X-1200Y7000D02*
X-800D01*
X-1000Y6800D02*
Y7200D01*
X-1200Y6000D02*
X-800D01*
X-1000Y5800D02*
Y6200D01*
X19623Y6100D02*
X19977D01*
X19800Y5923D02*
Y6277D01*
X18623Y6100D02*
X18977D01*
X18800Y5923D02*
Y6277D01*
X17623Y6100D02*
X17977D01*
X17800Y5923D02*
Y6277D01*
X16623Y6100D02*
X16977D01*
X16800Y5923D02*
Y6277D01*
X15623Y6100D02*
X15977D01*
X15800Y5923D02*
Y6277D01*
X14623Y6100D02*
X14977D01*
X14800Y5923D02*
Y6277D01*
X13623Y6100D02*
X13977D01*
X13800Y5923D02*
Y6277D01*
X12623Y6100D02*
X12977D01*
X12800Y5923D02*
Y6277D01*
X20823Y16000D02*
X21177D01*
X21000Y15823D02*
Y16177D01*
X20823Y15000D02*
X21177D01*
X21000Y14823D02*
Y15177D01*
X19823Y16000D02*
X20177D01*
X20000Y15823D02*
Y16177D01*
X19823Y15000D02*
X20177D01*
X20000Y14823D02*
Y15177D01*
X18823Y16000D02*
X19177D01*
X19000Y15823D02*
Y16177D01*
X18823Y15000D02*
X19177D01*
X19000Y14823D02*
Y15177D01*
X10823Y16500D02*
X11177D01*
X11000Y16323D02*
Y16677D01*
X10823Y15500D02*
X11177D01*
X11000Y15323D02*
Y15677D01*
X10823Y14500D02*
X11177D01*
X11000Y14323D02*
Y14677D01*
X10823Y13500D02*
X11177D01*
X11000Y13323D02*
Y13677D01*
X10823Y12500D02*
X11177D01*
X11000Y12323D02*
Y12677D01*
X10823Y11500D02*
X11177D01*
X11000Y11323D02*
Y11677D01*
X1323Y6500D02*
X1677D01*
X1500Y6323D02*
Y6677D01*
X1323Y5500D02*
X1677D01*
X1500Y5323D02*
Y5677D01*
X1323Y4500D02*
X1677D01*
X1500Y4323D02*
Y4677D01*
X1323Y3500D02*
X1677D01*
X1500Y3323D02*
Y3677D01*
X13523Y800D02*
X13877D01*
X13700Y623D02*
Y977D01*
X12523Y800D02*
X12877D01*
X12700Y623D02*
Y977D01*
X13523Y1800D02*
X13877D01*
X13700Y1623D02*
Y1977D01*
X12523Y1800D02*
X12877D01*
X12700Y1623D02*
Y1977D01*
X13523Y2800D02*
X13877D01*
X13700Y2623D02*
Y2977D01*
X12523Y2800D02*
X12877D01*
X12700Y2623D02*
Y2977D01*
X13523Y3800D02*
X13877D01*
X13700Y3623D02*
Y3977D01*
X12523Y3800D02*
X12877D01*
X12700Y3623D02*
Y3977D01*
X1223Y13500D02*
X1577D01*
X1400Y13323D02*
Y13677D01*
X1223Y12500D02*
X1577D01*
X1400Y12323D02*
Y12677D01*
X1223Y11500D02*
X1577D01*
X1400Y11323D02*
Y11677D01*
X21323Y6100D02*
X21677D01*
X21500Y5923D02*
Y6277D01*
X21323Y7100D02*
X21677D01*
X21500Y6923D02*
Y7277D01*
X21323Y8100D02*
X21677D01*
X21500Y7923D02*
Y8277D01*
X5723Y-1200D02*
X6077D01*
X5900Y-1377D02*
Y-1023D01*
X6723Y-1200D02*
X7077D01*
X6900Y-1377D02*
Y-1023D01*
X7723Y-1200D02*
X8077D01*
X7900Y-1377D02*
Y-1023D01*
X10023Y-1200D02*
X10377D01*
X10200Y-1377D02*
Y-1023D01*
X11023Y-1200D02*
X11377D01*
X11200Y-1377D02*
Y-1023D01*
X12023Y-1200D02*
X12377D01*
X12200Y-1377D02*
Y-1023D01*
X1370Y19500D02*
X2630D01*
X2000Y18870D02*
Y20130D01*
X20370Y19000D02*
X21630D01*
X21000Y18370D02*
Y19630D01*
X14370Y-1000D02*
X15630D01*
X15000Y-1630D02*
Y-370D01*
X17460Y10500D02*
X17540D01*
X17500Y10460D02*
Y10540D01*
X13460Y12000D02*
X13540D01*
X13500Y11960D02*
Y12040D01*
X5010Y9950D02*
X5090D01*
X5050Y9910D02*
Y9990D01*
X9960Y5500D02*
X10040D01*
X10000Y5460D02*
Y5540D01*
X7960Y7500D02*
X8040D01*
X8000Y7460D02*
Y7540D01*
M02*
