G04*
G04 #@! TF.GenerationSoftware,Altium Limited,Altium Designer,20.0.2 (26)*
G04*
G04 Layer_Physical_Order=1*
G04 Layer_Color=255*
%FSLAX24Y24*%
%MOIN*%
G70*
G01*
G75*
%ADD12C,0.0100*%
%ADD23C,0.0230*%
%ADD25C,0.0197*%
%ADD26O,0.2400X0.1200*%
%ADD27C,0.0591*%
%ADD28R,0.0591X0.0591*%
%ADD29O,0.0700X0.0550*%
%ADD30R,0.0700X0.0550*%
%ADD31O,0.0600X0.0787*%
%ADD32R,0.0600X0.0787*%
%ADD33R,0.0591X0.0591*%
%ADD34C,0.1260*%
%ADD35C,0.0150*%
G36*
X12000Y21000D02*
D01*
D02*
G37*
D12*
X15000Y13000D02*
X17500Y10500D01*
X13800Y6100D02*
X19000Y11300D01*
Y15000D01*
X8000Y10500D02*
X11000Y13500D01*
X8000Y8500D02*
Y10500D01*
X11555Y13945D02*
X13500Y12000D01*
X3845Y13945D02*
X11555D01*
X1400Y11500D02*
X3845Y13945D01*
X13700Y700D02*
X13800Y800D01*
X19000Y15000D02*
X20000D01*
X22300Y16300D02*
X23000Y17000D01*
X22300Y12600D02*
Y16300D01*
X15800Y6100D02*
X22300Y12600D01*
X22500Y15500D02*
X23000Y16000D01*
X22500Y12517D02*
Y15500D01*
X16800Y6817D02*
X22500Y12517D01*
X1500Y5500D02*
X10000D01*
X7000Y6500D02*
X8000Y7500D01*
X1500Y6500D02*
X7000D01*
X-400Y8500D02*
X8000D01*
X11000Y4500D02*
X12700Y2800D01*
X1500Y4500D02*
X11000D01*
X-825Y8075D02*
X-400Y8500D01*
X-925Y8075D02*
X-825D01*
X23500Y6500D02*
X24000Y7000D01*
X22600Y6500D02*
X23500D01*
X22324Y6224D02*
X22600Y6500D01*
X22324Y5124D02*
Y6224D01*
X22000Y8800D02*
X22925Y9725D01*
X22000Y5700D02*
Y8800D01*
X17100Y800D02*
X22000Y5700D01*
X22925Y9725D02*
Y9925D01*
X0Y2000D02*
X5700D01*
X8900Y-1200D01*
X17100Y-100D02*
X22324Y5124D01*
X13100Y-100D02*
X17100D01*
X13800Y800D02*
X17100D01*
X22925Y9925D02*
X23000Y10000D01*
X12000Y-1200D02*
X13100Y-100D01*
X22900Y11000D02*
X23000D01*
X21500Y9600D02*
X22900Y11000D01*
X21500Y8100D02*
Y9600D01*
X16800Y6100D02*
Y6817D01*
X8000Y8500D02*
X12700Y3800D01*
X-1000Y8000D02*
X-925Y8075D01*
X12700Y2800D02*
X13250Y3350D01*
Y5550D01*
X13800Y6100D01*
X12700Y1800D02*
Y2800D01*
Y800D02*
Y1800D01*
X25200Y19900D02*
G03*
X24600Y20500I-600J0D01*
G01*
X-2100Y-400D02*
G03*
X-1500Y-1100I650J-50D01*
G01*
X-1600Y20500D02*
G03*
X-2100Y20000I0J-500D01*
G01*
X24500Y-1100D02*
G03*
X25200Y-400I0J700D01*
G01*
X-1600Y20500D02*
X3500D01*
X20500D02*
X24600D01*
X11500Y18000D02*
X12000Y17500D01*
X6000Y18000D02*
X11500D01*
X12000Y15500D02*
Y17500D01*
X3500Y20500D02*
X6000Y18000D01*
X12000Y15500D02*
X12500Y15000D01*
X17500D01*
X18000Y15500D01*
Y18000D01*
X20500Y20500D01*
X3700Y-1100D02*
X4600Y-2000D01*
X18000Y-1100D02*
X24500D01*
X17100Y-2000D02*
X18000Y-1100D01*
X-1500Y-1100D02*
X3700D01*
X25200Y19900D02*
X25200Y-400D01*
X-2100D02*
X-2100Y20000D01*
X4600Y-2000D02*
X17100D01*
D23*
X5050Y9950D02*
D03*
D25*
X50D02*
X5050D01*
X0Y10000D02*
X50Y9950D01*
D26*
X6000Y16750D02*
D03*
D27*
X21000Y12600D02*
D03*
Y13600D02*
D03*
X16000Y13000D02*
D03*
X17000D02*
D03*
X19800Y6100D02*
D03*
X18800D02*
D03*
X17800D02*
D03*
X16800D02*
D03*
X15800D02*
D03*
X14800D02*
D03*
X13800D02*
D03*
X21000Y16000D02*
D03*
Y15000D02*
D03*
X20000Y16000D02*
D03*
Y15000D02*
D03*
X19000Y16000D02*
D03*
X11000Y16500D02*
D03*
Y15500D02*
D03*
Y14500D02*
D03*
Y13500D02*
D03*
Y12500D02*
D03*
X1500Y6500D02*
D03*
Y5500D02*
D03*
Y4500D02*
D03*
X12700Y800D02*
D03*
X13700Y1800D02*
D03*
X12700D02*
D03*
X13700Y2800D02*
D03*
X12700D02*
D03*
X13700Y3800D02*
D03*
X12700D02*
D03*
X1400Y13500D02*
D03*
Y12500D02*
D03*
X21500Y6100D02*
D03*
Y7100D02*
D03*
X5900Y-1200D02*
D03*
X6900D02*
D03*
X10200D02*
D03*
X11200D02*
D03*
D28*
X15000Y13000D02*
D03*
X12800Y6100D02*
D03*
X19000Y15000D02*
D03*
X7900Y-1200D02*
D03*
X12200D02*
D03*
D29*
X24000Y18000D02*
D03*
Y6000D02*
D03*
Y7000D02*
D03*
Y8000D02*
D03*
Y10000D02*
D03*
Y11000D02*
D03*
Y12000D02*
D03*
Y13000D02*
D03*
Y14000D02*
D03*
Y15000D02*
D03*
Y2000D02*
D03*
Y0D02*
D03*
Y1000D02*
D03*
Y16000D02*
D03*
Y17000D02*
D03*
Y5000D02*
D03*
Y3000D02*
D03*
Y4000D02*
D03*
Y9000D02*
D03*
X23000D02*
D03*
Y4000D02*
D03*
Y3000D02*
D03*
Y5000D02*
D03*
Y17000D02*
D03*
Y16000D02*
D03*
Y1000D02*
D03*
Y0D02*
D03*
Y2000D02*
D03*
Y15000D02*
D03*
Y14000D02*
D03*
Y13000D02*
D03*
Y12000D02*
D03*
Y11000D02*
D03*
Y10000D02*
D03*
Y8000D02*
D03*
Y7000D02*
D03*
Y6000D02*
D03*
X0Y18000D02*
D03*
Y6000D02*
D03*
Y7000D02*
D03*
Y8000D02*
D03*
Y10000D02*
D03*
Y11000D02*
D03*
Y12000D02*
D03*
Y13000D02*
D03*
Y14000D02*
D03*
Y15000D02*
D03*
Y2000D02*
D03*
Y0D02*
D03*
Y1000D02*
D03*
Y16000D02*
D03*
Y17000D02*
D03*
Y5000D02*
D03*
Y3000D02*
D03*
Y4000D02*
D03*
Y9000D02*
D03*
X-1000D02*
D03*
Y4000D02*
D03*
Y3000D02*
D03*
Y5000D02*
D03*
Y17000D02*
D03*
Y16000D02*
D03*
Y1000D02*
D03*
Y0D02*
D03*
Y2000D02*
D03*
Y15000D02*
D03*
Y14000D02*
D03*
Y13000D02*
D03*
Y12000D02*
D03*
Y11000D02*
D03*
Y10000D02*
D03*
Y8000D02*
D03*
Y7000D02*
D03*
Y6000D02*
D03*
D30*
X23000Y18000D02*
D03*
X-1000D02*
D03*
D31*
X1500D02*
D03*
D32*
X3500D02*
D03*
D33*
X11000Y11500D02*
D03*
X1500Y3500D02*
D03*
X13700Y800D02*
D03*
X1400Y11500D02*
D03*
X21500Y8100D02*
D03*
D34*
X2000Y19500D02*
D03*
X21000Y19000D02*
D03*
X15000Y-1000D02*
D03*
D35*
X17500Y10500D02*
D03*
X13500Y12000D02*
D03*
X10000Y5500D02*
D03*
X8000Y7500D02*
D03*
M02*
